<?xml version="1.0" encoding="UTF-8" standalone="no"?>
<!-- Created with Inkscape (http://www.inkscape.org/) -->

<svg
   xmlns:dc="http://purl.org/dc/elements/1.1/"
   xmlns:cc="http://creativecommons.org/ns#"
   xmlns:rdf="http://www.w3.org/1999/02/22-rdf-syntax-ns#"
   xmlns:svg="http://www.w3.org/2000/svg"
   xmlns="http://www.w3.org/2000/svg"
   xmlns:sodipodi="http://sodipodi.sourceforge.net/DTD/sodipodi-0.dtd"
   xmlns:inkscape="http://www.inkscape.org/namespaces/inkscape"
   id="svg2985"
   version="1.1"
   inkscape:version="0.48.2 r9819"
   width="1000"
   height="1149.7856"
   xml:space="preserve"
   sodipodi:docname="maintenanceform.pdf"><metadata
     id="metadata2991"><rdf:RDF><cc:Work
         rdf:about=""><dc:format>image/svg+xml</dc:format><dc:type
           rdf:resource="http://purl.org/dc/dcmitype/StillImage" /><dc:title></dc:title></cc:Work></rdf:RDF></metadata><defs
     id="defs2989"><clipPath
       clipPathUnits="userSpaceOnUse"
       id="clipPath3001"><path
         d="M 14,783 598,783 598,9 14,9 14,783 z"
         id="path3003"
         inkscape:connector-curvature="0" /></clipPath><clipPath
       clipPathUnits="userSpaceOnUse"
       id="clipPath3007"><path
         d="m 0,792.03 612,0 0,-792 -612,0 0,792 z"
         id="path3009"
         inkscape:connector-curvature="0" /></clipPath><clipPath
       clipPathUnits="userSpaceOnUse"
       id="clipPath3065"><path
         d="M 14,783 598,783 598,9 14,9 14,783 z"
         id="path3067"
         inkscape:connector-curvature="0" /></clipPath><clipPath
       clipPathUnits="userSpaceOnUse"
       id="clipPath3071"><path
         d="m 0,792.03 612,0 0,-792 -612,0 0,792 z"
         id="path3073"
         inkscape:connector-curvature="0" /></clipPath></defs><sodipodi:namedview
     pagecolor="#ffffff"
     bordercolor="#666666"
     borderopacity="1"
     objecttolerance="10"
     gridtolerance="10"
     guidetolerance="10"
     inkscape:pageopacity="0"
     inkscape:pageshadow="2"
     inkscape:window-width="1920"
     inkscape:window-height="1028"
     id="namedview2987"
     showgrid="false"
     fit-margin-left="0.5"
     fit-margin-bottom="0.5"
     fit-margin-top="0.5"
     fit-margin-right="0.5"
     inkscape:zoom="0.47676768"
     inkscape:cx="373.6295"
     inkscape:cy="647.08427"
     inkscape:window-x="-8"
     inkscape:window-y="-8"
     inkscape:window-maximized="1"
     inkscape:current-layer="g3159" /><g
     id="g2993"
     inkscape:groupmode="layer"
     inkscape:label="maintenanceform"
     transform="matrix(1.25,0,0,-1.25,-55.599383,2141.0875)"><g
       id="g3159"
       transform="matrix(5.468538,0,0,5.468538,-58.317439,-2517.8087)"><path
         id="path3013"
         style="fill:#ffffff;fill-opacity:1;fill-rule:nonzero;stroke:none"
         d="m 150.844,709.075 c -5.858,1.224 -7.557,7.809 -7.627,8.089 -0.005,0.019 -0.012,0.047 -0.017,0.066 -1.796,6.562 3.988,11.391 4.235,11.593 0.874,0.716 1.15,1.938 0.664,2.957 -0.487,1.019 -1.602,1.578 -2.708,1.349 -7.376,-1.53 -11.783,4.023 -12.496,5.005 -3.713,7.954 0.439,12.609 0.619,12.804 0.865,0.899 0.908,2.294 0.113,3.255 -0.796,0.96 -2.194,1.162 -3.238,0.481 -6.384,-4.164 -11.991,-0.084 -12.227,0.092 -0.021,0.016 -0.031,0.023 -0.053,0.039 -6.366,4.547 -4.917,10.848 -4.852,11.114 0.325,1.249 -0.375,2.527 -1.599,2.936 -1.224,0.409 -2.557,-0.21 -3.048,-1.403 0.003,0.006 0.004,0.008 0.004,0.008 -0.527,-1.121 -5.048,-4.582 -10.015,-4.463 -4.533,0.108 -8.065,3.154 -10.498,9.053 -0.411,0.995 -1.423,1.606 -2.495,1.506 -1.072,-0.1 -1.954,-0.887 -2.174,-1.941 -0.845,-4.055 -4.35,-7.62 -8.523,-8.672 -4.231,-1.065 -8.467,0.616 -11.929,4.734 -0.714,0.849 -1.909,1.113 -2.914,0.644 -1.005,-0.468 -1.571,-1.553 -1.379,-2.646 0.803,-4.582 -1.012,-9.169 -4.622,-11.685 -3.627,-2.529 -8.256,-2.497 -12.699,0.087 -0.985,0.573 -2.235,0.392 -3.017,-0.438 -0.782,-0.829 -0.89,-2.088 -0.26,-3.038 2.223,-3.352 2.326,-8.199 0.251,-11.787 -1.527,-2.641 -4.846,-5.693 -11.984,-5.239 -1.059,0.067 -2.041,-0.555 -2.434,-1.541 -0.393,-0.986 -0.107,-2.112 0.709,-2.791 4.332,-3.611 5.907,-7.785 4.552,-12.072 -1.453,-4.602 -5.815,-7.936 -8.062,-8.122 -1.159,-0.096 -2.091,-0.993 -2.232,-2.148 -0.14,-1.155 0.55,-2.249 1.652,-2.62 5.28,-1.779 8.52,-5.126 9.123,-9.426 0.581,-4.139 -1.359,-8.647 -4.717,-10.962 -0.944,-0.651 -1.311,-1.87 -0.883,-2.934 0.428,-1.065 1.537,-1.69 2.669,-1.506 4.951,0.805 9.19,-0.974 11.632,-4.881 2.436,-3.9 2.426,-8.852 -0.026,-12.321 -0.72,-1.021 -0.559,-2.42 0.374,-3.249 0.934,-0.83 2.342,-0.825 3.271,0.011 1.906,1.716 6.685,2.223 10.761,0.242 3.059,-1.488 6.605,-4.773 6.119,-11.979 -0.071,-1.059 0.547,-2.044 1.533,-2.44 0.985,-0.396 2.113,-0.114 2.795,0.7 2.768,3.306 7.521,5.112 11.558,4.391 3.964,-0.707 6.998,-3.701 8.774,-8.659 0.4,-1.116 1.542,-1.786 2.711,-1.592 1.17,0.194 2.033,1.198 2.051,2.383 0.032,2.181 3.027,6.385 7.648,8.011 3.234,1.138 8.105,1.264 12.95,-4.592 0.739,-0.894 2.003,-1.147 3.03,-0.608 1.027,0.54 1.536,1.724 1.219,2.84 -0.819,2.89 0.822,8.172 4.485,11.131 3.485,2.815 7.924,2.924 12.835,0.315 0.948,-0.503 2.114,-0.331 2.877,0.424 0.762,0.756 0.945,1.92 0.45,2.873 -1.911,3.679 -1.668,8.892 0.578,12.394 2.163,3.372 5.914,5.026 10.85,4.786 1.137,-0.055 2.164,0.68 2.477,1.775 0.314,1.095 -0.168,2.262 -1.163,2.817 -2.511,1.4 -4.939,6.19 -4.411,10.825 0.36,3.155 2.198,7.325 8.914,9.269 1.082,0.313 1.812,1.323 1.769,2.449 -0.043,1.125 -0.847,2.077 -1.95,2.307"
         inkscape:connector-curvature="0" /><path
         id="path3015"
         style="fill:#f3652f;fill-opacity:1;fill-rule:nonzero;stroke:none"
         d="m 150.343,706.674 c -15.59,-4.513 -11.42,-21.019 -5.016,-24.591 -14.483,0.705 -17.698,-13.108 -13.724,-20.76 -14.573,7.739 -22.843,-7.176 -20.83,-14.281 -11.031,13.333 -24.844,1.605 -24.94,-4.947 -5.116,14.284 -18.823,11.821 -24.522,5.016 1.075,15.957 -15.692,18.476 -20.969,13.724 6.059,8.575 -0.369,23.257 -14.002,21.039 7.536,5.196 9.723,19.766 -5.016,24.731 6.139,0.508 17.954,13.626 4.877,24.522 15.596,-0.992 18.897,13.343 13.932,20.83 11.828,-6.879 22.948,2.851 20.97,14.141 9.71,-11.551 22.81,-4.196 24.73,5.016 7.481,-18.131 23.553,-8.227 25.046,-4.594 0,0 -2.102,-8.064 5.804,-13.71 0,0 7.053,-5.403 15.046,-0.19 0,0 -5.664,-5.892 -0.972,-15.709 0,0 5.419,-8.198 15.132,-6.184 0,0 -7.314,-5.891 -5.055,-14.144 0,0 1.998,-8.34 9.509,-9.909"
         inkscape:connector-curvature="0" /><path
         id="path3017"
         style="fill:#ffffff;fill-opacity:1;fill-rule:nonzero;stroke:none"
         d="m 85.833,657.927 c 26.885,0 48.681,21.795 48.681,48.681 0,26.885 -21.796,48.681 -48.681,48.681 -26.886,0 -48.681,-21.796 -48.681,-48.681 0,-26.886 21.795,-48.681 48.681,-48.681"
         inkscape:connector-curvature="0" /><path
         id="path3019"
         style="fill:#ffffff;fill-opacity:1;fill-rule:nonzero;stroke:none"
         d="m 36.471,606.566 c 0,0 -1.871,1.119 -3.268,2.876 -2.384,2.999 -2.073,11.309 -1.7,13.727 0.639,6.949 4.696,11.925 7.452,14.773 2.726,2.817 6.765,5.003 8.649,6.213 -1.856,10.785 -3.49,21.268 -0.883,40.676 1.66,12.367 7.591,27.897 9.444,30.964 0.259,0.621 0.343,1.131 0.221,1.378 -0.179,0.363 -0.991,0.886 -2.683,1.189 -0.498,0.014 -2.558,0.041 -4.913,-0.333 l -0.162,-0.026 -0.163,0.003 c -0.466,0.007 -2.067,0.124 -3.116,1.321 -0.577,0.658 -0.872,1.526 -0.83,2.444 l 0.002,0.048 0.004,0.048 c 0.037,0.427 0.488,4.26 4.779,8.043 1.02,1.049 11.521,11.237 31.013,7.813 6.435,4.409 13.685,7.734 21.579,9.895 1.897,6.414 6.991,9.808 7.809,10.37 10.258,7.054 24.499,4.716 29.795,1.56 4.556,-2.715 10.207,-7.402 9.096,-18.8 4.696,-4.144 6.735,-10.157 7.044,-11.141 0.277,-0.676 1.464,-3.775 1.433,-7.242 1.916,-1.869 5.552,-4.902 6.542,-6.883 1.25,-2.5 1.637,-5.223 1.267,-7.387 -0.477,-2.798 -2.654,-4.716 -5.154,-5.466 -2.824,-0.847 -10.274,1.01 -11.394,1.373 -2.009,0.652 -6.259,1.527 -7.578,1.665 -4.557,0.476 -5.9,0.51 -11.072,-0.173 -1.11,-0.146 -1.723,-0.263 -2.396,-0.428 1.353,-6.759 -1.211,-14.253 -1.727,-14.931 -1.403,-1.844 -3.098,-3.102 -4.784,-3.178 -2.167,-0.098 -3.574,1.396 -3.727,1.567 l -0.021,0.024 -0.021,0.024 c -1.539,1.822 -2.829,3.577 -3.967,5.126 -0.852,1.159 -1.765,2.398 -2.568,3.32 -1.112,-4.696 -3.687,-11.254 -8.551,-15.934 -2.788,-3.267 -9.298,-8.218 -14.943,-7.968 -1.579,0.069 -2.653,0.736 -3.427,2.29 -0.651,1.308 -0.744,3.264 -0.16,4.725 0.064,0.158 0.488,1.44 0.909,3.538 -3.772,-2.207 -7.995,-5.625 -11.663,-9.509 -2.967,-3.141 -10.928,-17.574 -11.543,-29.417 7.807,-1.124 11.958,-3.689 14.048,-8.001 1.449,-2.991 1.703,-6.186 0.795,-10.023 -0.769,-3.252 -3.727,-4.353 -3.727,-4.353 0,0 -0.039,1.344 -0.731,1.952 -1.686,1.483 -3.896,0.646 -4.376,0.421 -0.76,-0.357 -1.803,-0.846 -3.661,-0.904 -1.571,-0.049 -2.882,0.376 -3.846,0.852 -0.928,-1.012 -2.359,-2.194 -4.278,-2.692 -5.465,-1.419 -11.083,-4.8 -11.892,-5.789 0,0 -3.165,-2.711 -2.119,-8.986 0,0 0.28,-1.876 -1.307,-1.699 0,0 -2.484,0.261 -3.53,1.045"
         inkscape:connector-curvature="0" /><path
         id="path3021"
         style="fill:#0f2955;fill-opacity:1;fill-rule:nonzero;stroke:none"
         d="m 124.54,707.403 c 2.351,-4.026 0.049,-15.157 -0.696,-16.184 -2.753,-3.794 -5.347,-1.206 -5.347,-1.206 -4.438,5.254 -6.873,10.11 -9.428,10.541 -0.428,-3.717 -2.664,-12.329 -8.589,-17.957 -0.552,-0.7 -7.227,-7.725 -13.702,-7.337 -0.39,0.023 -1.066,0.305 -1.456,1.16 -0.616,1.349 -0.107,2.662 -0.009,3.052 0.069,0.275 1.269,5.611 1.659,10.099 -25.569,-13.145 -28.62,-46.573 -28.62,-46.573 4.844,-0.529 12.49,-2.049 15.007,-7.241 1.303,-2.691 1.451,-6.071 0.654,-8.404 -0.337,-0.987 -0.538,-1.599 -1.089,-2.087 -0.131,1.527 -2.423,2.443 -4.764,2.028 -1.565,-0.278 -2.183,-1.225 -4.785,-1.306 -2.544,-0.08 -4.239,1.5 -4.239,1.5 -1.03,-2.985 -4.298,-3.4 -4.298,-3.4 -9.216,-2.357 -12.582,-6.361 -12.582,-6.361 -3.922,-4.38 -2.713,-9.592 -2.713,-9.592 0,0 -3.922,-0.85 -5.621,4.118 0,0 -1.765,5.033 -0.915,10.393 0.718,5.556 3.736,9.921 7.218,13.518 3.627,3.748 9.613,6.885 9.613,6.885 -1.914,11.098 -3.807,21.517 -1.127,41.467 1.682,12.519 7.783,28.11 9.219,30.224 1.522,3.425 -0.415,5.157 -4.034,5.77 0,0 -2.47,0.116 -5.41,-0.351 0,0 -2.025,0.032 -1.959,1.499 0,0 0.288,3.303 4.13,6.652 0,0 10.073,10.738 29.493,7.263 l 0.698,-0.046 c 7.66,5.365 15.704,8.513 22.704,10.312 1.368,7.007 7.876,10.677 7.876,10.677 0.498,0.179 -0.181,-0.605 0.313,-0.432 -3.854,-3.282 -8.279,-10.187 -3.183,-23.247 0,0 -0.021,1.486 0.356,2.947 0,0 1.893,-10.994 11.663,-9.961 0,0 7.084,0.072 9.445,8.914 0,0 0.872,4.39 4.102,6.262 0.593,0.53 0.945,0.683 2.046,1.535 1.098,1.191 1.24,2.004 0.875,4.588 l 0.002,-10e-4 c -0.459,4.279 -2.233,10.397 -10.626,11.972 0.088,0.188 0.136,0.376 0.155,0.562 5.679,-0.533 13.456,-3.546 13.422,-16.056 0.065,-0.113 0.16,-0.199 0.299,-0.228 0,0 1.383,0.205 2.557,-0.255 0,0 0.12,0.072 0.21,0.252 1.539,12.438 -9.623,16.077 -9.623,16.077 3.302,-1.053 4.756,-1.789 4.756,-1.789 0,0 9.941,-3.584 8.547,-17.993 5.219,-4.015 7.309,-10.695 7.309,-10.695 0,0 1.267,-3.561 1.463,-7.875 0,0 4.444,-3.835 5.665,-5.839 0,0 1.154,-1.634 1.458,-4.368 0,0 0.328,-1.456 -0.456,-3.483 0,0 -1.291,-3.541 -7.085,-2.445 -2.941,0.327 -5.164,1.014 -5.164,1.014 -3.137,0.947 -6.83,1.606 -9.183,1.954 -4.649,0.689 -8.9,0.602 -11.418,0.262 0,0 -3.869,-0.516 -4.793,-0.785"
         inkscape:connector-curvature="0" /><path
         id="path3023"
         style="fill:#ffffff;fill-opacity:1;fill-rule:nonzero;stroke:none"
         d="m 108.558,732.837 c 0,0 -0.021,1.486 0.356,2.947 0,0 1.893,-10.994 11.663,-9.961 0,0 7.084,0.072 9.445,8.914 0,0 0.872,4.39 4.102,6.262 0.593,0.53 0.945,0.683 2.046,1.535 1.098,1.191 1.24,2.004 0.875,4.588 l 0.002,-10e-4 c -0.548,5.11 -2.969,12.845 -16.306,12.331 0,0 19.31,3.843 19.257,-15.853 0.065,-0.113 0.16,-0.199 0.299,-0.228 0,0 1.383,0.205 2.557,-0.255 0,0 0.12,0.072 0.21,0.252 1.539,12.438 -9.623,16.077 -9.623,16.077 0,0 0.631,-0.09 1.597,-0.398 -4.166,1.65 -8.552,1.438 -8.552,1.438 -4.438,-0.096 -7.944,-0.793 -10.711,-1.891 0.045,0.013 0.087,0.027 0.132,0.04 0,0 -15.319,-5.371 -7.349,-25.797"
         inkscape:connector-curvature="0" /><path
         id="path3025"
         style="fill:#00656a;fill-opacity:1;fill-rule:nonzero;stroke:none"
         d="m 161.234,709.937 c 0.645,-3.911 -4.175,-3.9 -4.175,-3.9 -5.883,0.523 -6.406,1.111 -10.905,3.518 0,0 -15.786,9.619 -34.13,0.013 0,0 -0.256,-0.34 -0.604,-0.9 5.078,8.566 15.807,8.374 15.807,8.374 -3.679,6.564 -26.249,-2.516 -26.249,-2.516 9.826,2.103 12.035,1.184 12.035,1.184 0,0 -0.017,-0.01 -0.047,-0.032 -5.783,-1.569 -7.564,-13.197 -7.564,-13.197 -1.886,-9.734 -2.355,-12.169 -5.446,-16.771 -1.215,-1.807 -4.15,-5.437 -9.705,-6.563 0.141,10e-4 0.279,0.005 0.417,0.01 -0.163,-0.007 -0.328,-0.011 -0.496,-0.012 -0.246,-0.002 -0.43,0.125 -0.43,0.125 0,0 -1.269,0.442 -0.593,2.703 0,0 2.503,7.021 2.263,14.678 -0.147,4.709 -1.115,7.249 -1.712,9.085 -0.126,0.37 -0.266,0.779 -0.421,1.236 0,0 1.62,3.731 3.423,5.045 0,0 -11.705,-4.58 -20.656,-15.904 0,0 3.72,12.47 24.668,20.736 0,0 -23.118,-1.196 -38.798,-35.363 0,0 -9.068,-18.861 -3.134,-39.729 0,0 -0.848,8.323 3.719,12.992 0,0 -4.133,-10.491 0.848,-19.097 0,0 1.724,-4.742 6.857,-4.814 0,0 5.21,0.457 5.615,-2.459 -0.225,0.178 -0.563,0.403 -0.723,0.499 -0.381,0.229 -0.753,0.465 -2.24,0.479 -1.741,0.016 -2.186,-0.669 -4.671,-0.895 -1.52,-0.138 -4.681,-0.622 -6.727,3.872 0,0 1.137,-4.999 -3.871,-6.244 0,0 -6.604,-2.355 -9.609,-4.088 0,0 -5.722,-3.016 -6.245,-9.684 0,0 0.13,-0.958 -0.676,-0.98 0,0 -0.609,-0.024 -1.078,1.486 0,0 -4.707,12.747 6.924,22.681 1.485,1.268 3.102,2.294 4.678,3.259 4.968,2.004 6.969,-2.058 6.969,-2.058 -2.755,5.496 -4.249,14.206 -4.69,17.098 -0.03,0.266 -0.06,0.536 -0.089,0.81 -2.29,21.441 3.548,42.292 5.857,48.352 1.322,3.468 2.85,6.64 4.518,9.544 l -0.114,-0.109 c 2.039,3.161 2.234,4.963 2.234,4.963 0.528,2.384 -1.641,4.213 -1.641,4.213 -2.048,2.335 -7.594,1.535 -7.594,1.535 0,0 -1.501,-0.203 -1.201,0.928 0,0 0.005,0.021 0.015,0.053 0.689,1.117 2.015,2.2 3.464,3.143 12.852,7.535 11.849,-2.955 11.849,-2.955 5.051,6.188 11.396,8.685 11.396,8.685 C 56.738,715.934 55.76,690.003 55.76,690.003 c 9.665,43.037 43.063,51.353 47.891,49.753 0.214,-0.273 1.148,-1.352 1.647,-1.868 -0.677,3.429 -0.921,7.977 0.967,12.134 0,0 2.267,6.541 9.642,8.612 0,0 -2.064,-0.734 -4.291,-2.659 -0.001,-10e-4 -0.002,-0.002 -0.004,-0.003 -1.036,-0.901 -2.104,-2.065 -3.011,-3.54 -0.002,-0.002 -0.003,-0.004 -0.005,-0.007 -0.258,-0.421 -0.504,-0.867 -0.732,-1.34 -0.342,-0.709 -0.644,-1.478 -0.891,-2.31 -0.001,-0.005 -0.003,-0.011 -0.005,-0.017 -0.411,-1.39 -0.669,-2.953 -0.703,-4.712 -0.06,-3.101 0.574,-6.805 2.293,-11.209 0,0 -0.021,1.486 0.356,2.947 0,0 1.893,-10.994 11.663,-9.961 0,0 7.084,0.072 9.445,8.914 0,0 0.935,4.641 4.102,6.262 0.593,0.53 0.945,0.683 2.046,1.535 0.912,0.933 0.967,1.785 0.967,1.785 0.246,1.203 -0.092,2.803 -0.092,2.803 l 0.002,-10e-4 c -0.548,5.11 -2.969,12.845 -16.306,12.331 0,0 19.31,3.843 19.257,-15.853 0.065,-0.113 0.16,-0.199 0.299,-0.228 0,0 1.383,0.205 2.557,-0.255 0,0 0.12,0.072 0.21,0.252 1.539,12.438 -9.623,16.077 -9.623,16.077 0,0 13.554,-1.911 11.483,-18.765 -1.6,0.842 -4.977,1.149 -8.048,-0.143 -3.693,-1.784 -5.263,-5.75 -5.263,-5.75 3.979,5.316 8.842,5.313 11.858,4.607 3.194,-1.904 8.041,-6.082 9.486,-14.373 0.011,-0.045 0.022,-0.099 0.033,-0.159 -0.936,2.456 -4.051,9.133 -11.024,11.787 0,0 5.105,-3.481 7.79,-10.778 0.385,-1.045 1.377,-3.653 0.335,-3.935 -1.913,-0.719 -7.622,-1.016 -11.241,0.033 -1.123,0.325 -1.639,0.582 -2.098,0.897 -0.214,0.092 -0.533,0.238 -0.533,0.238 -1.107,-0.809 -2.135,-0.544 -2.135,-0.544 1.102,0.282 1.44,1.19 1.44,1.19 -0.976,0.071 -1.63,1.097 -1.63,1.097 -1.316,1.639 -2.496,2.099 -2.496,2.099 -2.621,0.987 -3.847,-0.752 -4.013,-1.013 -0.341,-0.874 0.054,-2.291 2.87,-4.494 -0.733,1.536 -1.178,3.205 0.537,3.71 0.041,0.012 0.076,0.026 0.119,0.037 0.929,0.091 1.84,-0.547 2.319,-0.954 -0.233,-0.132 -0.421,-0.326 -0.53,-0.577 -0.298,-0.689 0.112,-1.526 0.916,-1.871 0.339,-0.146 0.692,-0.175 1.011,-0.114 0.447,0.011 0.97,0.156 1.514,0.45 2.524,-1.333 6.114,-1.947 8.992,-2.114 0,0 6.381,-0.32 8.146,0.334 5.503,-3.072 7.279,-6.618 7.379,-6.917 0.871,-2.614 -2.876,-2.622 -2.876,-2.622 -5.252,0.153 -7.292,1.991 -10.895,3.668 -4.066,1.893 -2.614,1.307 -6.452,2.613 0,0 -3.988,1.307 -5.057,-0.181 0,0 0.064,0.104 0.225,0.218 -0.001,-0.003 -0.003,-0.006 -0.004,-0.009 0,0 1.526,0.279 4.149,-1.052 2.938,-1.489 5.697,-2.803 8.552,-4.181 0,0 4.287,-3.605 8.972,-3.179 l 1.686,-0.142 2.276,1.381"
         inkscape:connector-curvature="0" /><path
         id="path3027"
         style="fill:#00656a;fill-opacity:1;fill-rule:nonzero;stroke:none"
         d="m 110.232,742.681 c 0,0 -1.742,0.157 -2.444,1.587 0,0 -0.093,8.079 7.599,12.059 0,0 -6.802,-4.088 -5.155,-13.646"
         inkscape:connector-curvature="0" /><path
         id="path3029"
         style="fill:#00656a;fill-opacity:1;fill-rule:nonzero;stroke:none"
         d="m 108.195,742.154 c 0,0 0.818,-0.708 1.285,-0.701 0,0 0.121,-2.16 1.175,-4.305 0,0 -2.544,2.144 -2.46,5.006"
         inkscape:connector-curvature="0" /><path
         id="path3031"
         style="fill:#00656a;fill-opacity:1;fill-rule:nonzero;stroke:none"
         d="m 121.376,733.62 c -1.569,-0.787 -1.681,-2.404 -1.681,-2.404 -0.246,-1.55 0.353,-2.673 0.441,-2.828 0.21,-0.091 0.435,-0.143 0.669,-0.145 1.179,-0.01 2.141,1.207 2.146,2.72 0.005,1.268 -0.664,2.337 -1.575,2.657"
         inkscape:connector-curvature="0" /><path
         id="path3033"
         style="fill:#0f2955;fill-opacity:1;fill-rule:nonzero;stroke:none"
         d="m 119.695,731.216 c 0,0 0.112,1.617 1.681,2.404 -0.176,0.062 -0.36,0.099 -0.551,0.1 -1.18,0.011 -2.141,-1.207 -2.146,-2.719 -0.005,-1.213 0.607,-2.245 1.457,-2.613 -0.088,0.155 -0.687,1.278 -0.441,2.828"
         inkscape:connector-curvature="0" /><path
         id="path3035"
         style="fill:#f3652f;fill-opacity:1;fill-rule:nonzero;stroke:none"
         d="m 115.465,751.183 c 0.594,-0.174 0.677,-0.548 0.62,-0.989 l -0.696,-7.249 c -0.061,-0.378 -0.263,-0.83 -0.757,-0.835 l -0.232,-0.011 c 0,0 -0.173,-0.019 -0.193,-0.146 l -0.026,-0.469 c 0,0 0.07,-0.182 0.161,-0.237 0.091,-0.055 3.402,-0.403 3.402,-0.403 0,0 0.143,0.042 0.223,0.141 l 0.051,0.528 -0.156,0.163 c -0.827,0.175 -0.6,0.836 -0.633,1.021 l 0.416,4.549 2.591,-6.684 1.469,-0.204 3.129,6.121 -0.38,-4.64 c -0.129,-0.663 -0.414,-0.759 -0.529,-0.768 l -0.233,-0.004 c 0,0 -0.204,0.016 -0.247,-0.206 l -0.035,-0.345 c 0,0 -0.039,-0.283 0.168,-0.33 l 4.341,-0.52 c 0,0 0.201,0.046 0.252,0.143 l 0.051,0.533 c 0,0 -0.1,0.18 -0.218,0.202 0,0 -0.614,0.049 -0.736,0.974 l 0.607,7.274 c 0,0 -0.022,0.747 0.873,0.844 0,0 0.201,0.046 0.277,0.208 l 0.08,0.535 c 0,0 -0.073,0.213 -0.191,0.235 -0.118,0.022 -3.813,0.466 -3.813,0.466 l -3.36,-5.733 -2.388,6.398 -3.989,0.484 c 0,0 -0.232,-0.017 -0.248,-0.206 -0.016,-0.188 -0.081,-0.504 -0.081,-0.504 0,0 0.017,-0.254 0.104,-0.248 0.087,0.006 0.326,-0.088 0.326,-0.088"
         inkscape:connector-curvature="0" /><path
         id="path3037"
         style="fill:#f3652f;fill-opacity:1;fill-rule:nonzero;stroke:none"
         d="m 142.599,743.204 c 0.108,12.975 -8.588,14.875 -8.588,14.875 7.059,-3.801 7.031,-11.671 6.737,-14.67 0.448,0.021 1.164,0.007 1.851,-0.205"
         inkscape:connector-curvature="0" /><path
         id="path3039"
         style="fill:#ffffff;fill-opacity:1;fill-rule:nonzero;stroke:none"
         d="m 136.835,722.831 c 0.114,0.14 0.327,0.757 0.25,1.399 -0.103,0.848 -1.166,3.757 -4.993,4.071 -3.998,0.327 -4.728,-2.401 -4.728,-2.401 0,0 1.206,2.111 4.034,1.046 0,0 1.18,-0.46 2.496,-2.099 0,0 0.654,-1.026 1.63,-1.097 0,0 -0.338,-0.908 -1.44,-1.19 0,0 1.028,-0.265 2.135,0.544 0,0 0.414,-0.189 0.616,-0.273"
         inkscape:connector-curvature="0" /><path
         id="path3041"
         style="fill:#ffffff;fill-opacity:1;fill-rule:nonzero;stroke:none"
         d="m 134.627,721.67 c -0.319,-0.061 -0.672,-0.032 -1.011,0.114 -0.804,0.345 -1.214,1.182 -0.916,1.871 0.109,0.251 0.297,0.445 0.53,0.577 -0.479,0.407 -1.39,1.045 -2.319,0.954 -0.043,-0.011 -0.407,-1.623 0.239,-2.549 0,0 1.035,-1.914 3.613,-1.289 0,0 0.754,0.089 1.511,0.706 -0.044,0.022 -0.09,0.043 -0.133,0.066 -0.544,-0.294 -1.067,-0.439 -1.514,-0.45"
         inkscape:connector-curvature="0" /><path
         id="path3043"
         style="fill:#ffffff;fill-opacity:1;fill-rule:nonzero;stroke:none"
         d="m 154.721,709.34 c 0,0 5.791,-2.061 6.513,1.546 1.367,-5.923 -7.012,-2.662 -7.012,-2.662 -2.423,0.616 -13.42,7.344 -13.42,7.344 -2.331,1.361 -3.652,1.423 -3.652,1.423 -0.392,0.098 -1.531,0.158 -1.531,0.158 0.719,0.458 2.887,0.142 5.567,-1.168 0,0 11.113,-6.18 13.535,-6.641"
         inkscape:connector-curvature="0" /><path
         id="path3045"
         style="fill:#ffffff;fill-opacity:1;fill-rule:nonzero;stroke:none"
         d="m 149.532,707.594 c -6.014,2.357 -10.508,2.599 -10.508,2.599 -18.032,1.591 -29.374,-5.632 -29.374,-5.632 0.548,2.576 2.374,5.007 2.374,5.007 18.867,10.325 34.947,-0.461 34.947,-0.461 0,0 3.159,-1.697 3.65,-1.861 0,0 -0.641,0.172 -1.089,0.348"
         inkscape:connector-curvature="0" /><path
         id="path3047"
         style="fill:#ffffff;fill-opacity:1;fill-rule:nonzero;stroke:none"
         d="m 113.091,715.712 c 0,0 -4.169,-2.636 -5.408,-13.038 -0.641,-5.382 -1.761,-11.93 -7.308,-18.176 -1.845,-2.076 -4.919,-5.327 -10.124,-5.351 5.555,1.126 8.49,4.756 9.705,6.563 3.091,4.602 3.56,7.037 5.446,16.771 0,0 1.806,11.799 7.689,13.231"
         inkscape:connector-curvature="0" /><path
         id="path3049"
         style="fill:#ffffff;fill-opacity:1;fill-rule:nonzero;stroke:none"
         d="m 87.614,692.84 c 0,0 0.986,4.621 -0.726,8.496 0,0 -23.167,-9.793 -25.424,-36.798 0,0 3.138,15.484 26.15,28.302"
         inkscape:connector-curvature="0" /><path
         id="path3051"
         style="fill:#ffffff;fill-opacity:1;fill-rule:nonzero;stroke:none"
         d="m 56.547,730.824 c 11.171,6.776 23.107,3.738 23.107,3.738 0,0 -1.3,-0.647 -2.419,-1.388 0,0 -9.511,2.9 -20.688,-2.35"
         inkscape:connector-curvature="0" /><path
         id="path3053"
         style="fill:#ffffff;fill-opacity:1;fill-rule:nonzero;stroke:none"
         d="m 45.48,626.301 c -5.735,-1.067 -8.196,-7.123 -8.072,-10.503 0,0 -3.213,14.236 9.629,20.284 0,0 5.522,2.413 6.059,-3.55 0.079,-0.887 1.285,-4.575 -7.616,-6.231"
         inkscape:connector-curvature="0" /><path
         id="path3055"
         style="fill:#ffffff;fill-opacity:1;fill-rule:nonzero;stroke:none"
         d="m 157.084,716.561 c 0,0 5.799,-4.156 0.085,-4.658 0,0 2.83,1.842 -0.085,4.658"
         inkscape:connector-curvature="0" /><path
         id="path3057"
         style="fill:#00656a;fill-opacity:1;fill-rule:nonzero;stroke:none"
         d="m 123.027,705.188 -2.099,-0.471 c 0,0 2.289,-1.458 1.585,-11.988 0,0 2.827,7.148 0.514,12.459"
         inkscape:connector-curvature="0" /><path
         id="path3059"
         style="fill:#00656a;fill-opacity:1;fill-rule:nonzero;stroke:none"
         d="m 61.967,640.402 c 0,0 9.735,-0.324 10.247,-6.626 0,0 -0.833,2.574 -4.746,2.777 0,0 -6.003,0.564 -5.501,3.849"
         inkscape:connector-curvature="0" /></g></g></svg>